# Blender 3.5.1
# www.blender.org
mtllib Chaff.mtl
o Cube
v 1.000000 -1.000000 -0.035087
v 1.000000 -1.000000 0.035087
v -0.024688 1.510337 -0.035087
v -1.000000 -1.000000 -0.035087
v -0.024688 1.510337 0.035087
v -1.000000 -1.000000 0.035087
vn -0.0000 -0.0000 1.0000
vn -0.9321 0.3621 -0.0000
vn -0.0000 -1.0000 -0.0000
vn -0.0000 -0.0000 -1.0000
vn 0.9258 0.3779 -0.0000
vt 0.375000 0.500000
vt 0.375000 0.750000
vt 0.625000 0.250000
vt 0.875000 0.500000
vt 0.125000 0.500000
vt 0.375000 0.250000
vt 0.625000 1.000000
vt 0.625000 0.000000
vt 0.875000 0.750000
vt 0.375000 1.000000
vt 0.375000 0.000000
vt 0.125000 0.750000
s 0
usemtl Material
f 2/2/1 5/7/1 6/10/1
f 6/11/2 5/8/2 3/3/2 4/6/2
f 4/5/3 1/1/3 2/2/3 6/12/3
f 4/6/4 3/3/4 1/1/4
f 1/1/5 3/4/5 5/9/5 2/2/5
